<svg width="22" height="22" viewBox="0 0 22 22" fill="none" xmlns="http://www.w3.org/2000/svg">
<g clip-path="url(#clip0_298_2273)">
<mask id="mask0_298_2273" style="mask-type:luminance" maskUnits="userSpaceOnUse" x="-5" y="-5" width="32" height="32">
<path d="M27 -5H-5V27H27V-5Z" fill="white"/>
</mask>
<g mask="url(#mask0_298_2273)">
<path d="M18.7921 19.7931L11.0001 12.0001L3.20811 19.7931C3.14245 19.8588 3.06449 19.9109 2.9787 19.9464C2.89291 19.9819 2.80097 20.0002 2.70811 20.0002C2.61525 20.0002 2.5233 19.9819 2.43751 19.9464C2.35172 19.9109 2.27377 19.8588 2.20811 19.7931C2.14245 19.7274 2.09036 19.6495 2.05483 19.5637C2.01929 19.4779 2.001 19.386 2.001 19.2931C2.001 19.2002 2.01929 19.1083 2.05483 19.0225C2.09036 18.9367 2.14245 18.8588 2.20811 18.7931L10.0001 11.0001L2.20711 3.20811C2.0745 3.0755 2 2.89564 2 2.70811C2 2.52057 2.0745 2.34072 2.20711 2.20811C2.33972 2.0755 2.51957 2.001 2.70711 2.001C2.89464 2.001 3.0745 2.0755 3.20711 2.20811L11.0001 10.0001L18.7921 2.20711C18.8578 2.14145 18.9357 2.08936 19.0215 2.05383C19.1073 2.01829 19.1992 2 19.2921 2C19.385 2 19.4769 2.01829 19.5627 2.05383C19.6485 2.08936 19.7264 2.14145 19.7921 2.20711C19.8578 2.27277 19.9099 2.35072 19.9454 2.43651C19.9809 2.5223 19.9992 2.61425 19.9992 2.70711C19.9992 2.79997 19.9809 2.89191 19.9454 2.9777C19.9099 3.06349 19.8578 3.14145 19.7921 3.20711L12.0001 11.0001L19.7921 18.7921C19.8578 18.8578 19.9099 18.9357 19.9454 19.0215C19.9809 19.1073 19.9992 19.1992 19.9992 19.2921C19.9992 19.385 19.9809 19.4769 19.9454 19.5627C19.9099 19.6485 19.8578 19.7264 19.7921 19.7921C19.7264 19.8578 19.6485 19.9099 19.5627 19.9454C19.4769 19.9809 19.385 19.9992 19.2921 19.9992C19.1992 19.9992 19.1073 19.9809 19.0215 19.9454C18.9357 19.9099 18.8578 19.8588 18.7921 19.7931Z" fill="black"/>
</g>
</g>
<defs>
<clipPath id="clip0_298_2273">
<rect width="22" height="22" fill="white"/>
</clipPath>
</defs>
</svg>
