<?xml version="1.0" standalone="no"?>
<!DOCTYPE svg PUBLIC "-//W3C//DTD SVG 20010904//EN"
 "http://www.w3.org/TR/2001/REC-SVG-20010904/DTD/svg10.dtd">
<svg version="1.0" xmlns="http://www.w3.org/2000/svg"
 width="512.000000pt" height="512.000000pt" viewBox="0 0 512.000000 512.000000"
 preserveAspectRatio="xMidYMid meet">

<g transform="translate(0.000000,512.000000) scale(0.100000,-0.100000)"
fill="#000000" stroke="none">
<path d="M2490 4951 c-75 -24 -146 -87 -177 -156 -17 -38 -18 -111 -21 -1277
l-2 -1238 -428 356 c-235 195 -445 365 -467 377 -56 30 -173 30 -231 0 -134
-71 -185 -223 -120 -356 25 -53 68 -90 702 -619 486 -405 688 -568 722 -581
55 -22 147 -19 202 5 19 9 337 268 706 576 637 531 673 563 700 618 65 134 14
286 -120 357 -58 30 -175 30 -231 0 -22 -12 -231 -181 -465 -376 l-425 -355
-5 1237 c-5 1162 -6 1238 -23 1276 -23 51 -80 111 -132 137 -43 22 -144 33
-185 19z"/>
<path d="M336 1744 c-33 -10 -64 -31 -97 -64 -79 -79 -81 -90 -77 -557 l4
-398 27 -80 c37 -111 90 -197 173 -279 82 -83 167 -136 279 -174 l80 -27 1835
0 1835 0 80 27 c113 39 199 92 280 174 82 83 135 168 172 279 l27 80 4 398 c4
467 2 478 -77 557 -101 101 -252 106 -361 13 -24 -21 -53 -60 -66 -87 -24 -51
-24 -54 -24 -406 0 -203 -4 -370 -10 -389 -13 -46 -65 -99 -110 -111 -48 -14
-3452 -14 -3500 0 -45 12 -97 65 -110 111 -6 19 -10 186 -10 389 0 352 0 355
-24 406 -57 123 -193 180 -330 138z"/>
</g>
</svg>
