<?xml version="1.0" standalone="no"?>
<!DOCTYPE svg PUBLIC "-//W3C//DTD SVG 20010904//EN"
 "http://www.w3.org/TR/2001/REC-SVG-20010904/DTD/svg10.dtd">
<svg version="1.0" xmlns="http://www.w3.org/2000/svg"
 width="348.000000pt" height="348.000000pt" viewBox="0 0 348.000000 348.000000"
 preserveAspectRatio="xMidYMid meet">

<g transform="translate(0.000000,348.000000) scale(0.100000,-0.100000)"
fill="#000000" stroke="none">
<path d="M2498 3285 c-21 -7 -444 -279 -940 -602 -964 -628 -999 -653 -1051
-764 -54 -114 -54 -244 0 -358 51 -107 103 -146 793 -596 355 -231 761 -495
902 -588 142 -92 278 -175 304 -184 123 -42 276 32 320 156 16 44 18 140 3
178 -22 60 -65 105 -158 168 -53 35 -431 283 -841 550 -410 267 -745 490 -745
495 0 8 615 413 1455 959 211 137 260 179 286 247 20 53 16 163 -9 211 -23 43
-72 90 -120 115 -52 26 -149 33 -199 13z"/>
</g>
</svg>
