<?xml version="1.0" standalone="no"?>
<!DOCTYPE svg PUBLIC "-//W3C//DTD SVG 20010904//EN"
 "http://www.w3.org/TR/2001/REC-SVG-20010904/DTD/svg10.dtd">
<svg version="1.0" xmlns="http://www.w3.org/2000/svg"
 width="348.000000pt" height="348.000000pt" viewBox="0 0 348.000000 348.000000"
 preserveAspectRatio="xMidYMid meet">

<g transform="translate(0.000000,348.000000) scale(0.100000,-0.100000)"
fill="#000000" stroke="none">
<path d="M819 3286 c-119 -42 -179 -127 -179 -253 0 -103 40 -161 169 -248 53
-35 431 -283 841 -550 410 -267 745 -490 745 -495 0 -8 -615 -413 -1455 -959
-211 -137 -260 -179 -286 -247 -20 -53 -16 -163 9 -211 55 -105 190 -164 302
-133 70 20 1831 1170 1916 1252 136 131 171 310 92 477 -51 107 -103 146 -793
596 -355 231 -760 495 -902 587 -141 93 -275 175 -298 183 -51 18 -113 19
-161 1z"/>
</g>
</svg>
