<?xml version="1.0" standalone="no"?>
<!DOCTYPE svg PUBLIC "-//W3C//DTD SVG 20010904//EN"
 "http://www.w3.org/TR/2001/REC-SVG-20010904/DTD/svg10.dtd">
<svg version="1.0" xmlns="http://www.w3.org/2000/svg"
 width="512.000000pt" height="512.000000pt" viewBox="0 0 512.000000 512.000000"
 preserveAspectRatio="xMidYMid meet">

<g transform="translate(0.000000,512.000000) scale(0.100000,-0.100000)"
fill="#000000" stroke="none">
<path d="M2085 4474 c-99 -11 -263 -47 -357 -80 -553 -190 -945 -640 -1060
-1217 -32 -159 -32 -434 0 -592 130 -655 621 -1146 1275 -1277 160 -32 434
-32 593 0 247 49 493 158 665 294 l51 40 497 -495 c436 -436 501 -496 534
-502 60 -11 107 3 148 44 41 41 55 88 44 149 -6 32 -66 97 -502 533 l-495 496
45 59 c141 186 240 412 289 659 32 157 32 433 0 590 -130 653 -620 1146 -1267
1275 -98 20 -368 34 -460 24z m425 -343 c329 -75 610 -267 797 -546 85 -126
154 -293 189 -455 26 -119 26 -381 0 -500 -54 -252 -164 -456 -344 -642 -180
-186 -402 -308 -662 -364 -126 -27 -392 -25 -516 4 -511 120 -881 494 -990
1002 -26 119 -26 381 0 500 73 338 268 626 551 817 157 105 364 181 565 207
79 10 327 -4 410 -23z"/>
</g>
</svg>
