<?xml version="1.0" standalone="no"?>
<!DOCTYPE svg PUBLIC "-//W3C//DTD SVG 20010904//EN"
 "http://www.w3.org/TR/2001/REC-SVG-20010904/DTD/svg10.dtd">
<svg version="1.0" xmlns="http://www.w3.org/2000/svg"
 width="512.000000pt" height="512.000000pt" viewBox="0 0 512.000000 512.000000"
 preserveAspectRatio="xMidYMid meet">

<g transform="translate(0.000000,512.000000) scale(0.100000,-0.100000)"
fill="#000000" stroke="none">
<path d="M2463 4942 c-26 -10 -305 -236 -717 -580 -634 -529 -677 -566 -702
-619 -65 -133 -14 -285 120 -356 58 -30 175 -30 231 0 22 12 232 182 467 377
l428 356 2 -1238 c3 -1386 -3 -1274 76 -1355 60 -62 105 -82 192 -82 87 0 132
20 192 82 79 81 72 -30 78 1354 l5 1237 425 -355 c234 -195 443 -364 465 -376
56 -30 173 -30 230 0 54 28 119 100 136 149 22 65 16 144 -16 209 -26 54 -65
88 -699 617 -369 308 -687 567 -706 576 -52 23 -156 26 -207 4z"/>
<path d="M336 1744 c-33 -10 -64 -31 -97 -64 -79 -79 -81 -90 -77 -557 l4
-398 27 -80 c37 -111 90 -197 173 -279 82 -83 167 -136 279 -174 l80 -27 1835
0 1835 0 80 27 c113 39 199 92 280 174 82 83 135 168 172 279 l27 80 4 398 c4
467 2 478 -77 557 -101 101 -252 106 -361 13 -24 -21 -53 -60 -66 -87 -24 -51
-24 -54 -24 -406 0 -203 -4 -370 -10 -389 -13 -46 -65 -99 -110 -111 -48 -14
-3452 -14 -3500 0 -45 12 -97 65 -110 111 -6 19 -10 186 -10 389 0 352 0 355
-24 406 -57 123 -193 180 -330 138z"/>
</g>
</svg>
